<mxfile host="Electron" modified="2023-06-13T14:49:41.500Z" agent="Mozilla/5.0 (X11; Linux x86_64) AppleWebKit/537.36 (KHTML, like Gecko) draw.io/21.3.7 Chrome/112.0.5615.204 Electron/24.5.0 Safari/537.36" etag="RNFzdrgjBXd563uxwQQM" version="21.3.7" type="device">
  <diagram name="Page-1" id="AK_9tvrRVK-foFDb17M-">
    <mxGraphModel dx="1434" dy="843" grid="1" gridSize="10" guides="1" tooltips="1" connect="1" arrows="1" fold="1" page="1" pageScale="1" pageWidth="1200" pageHeight="1600" math="0" shadow="0">
      <root>
        <mxCell id="0" />
        <mxCell id="1" parent="0" />
        <mxCell id="k0IA8ltI0ftRQljYh4qC-24" value="" style="endArrow=classic;html=1;rounded=0;exitX=0.5;exitY=0;exitDx=0;exitDy=0;" edge="1" parent="1" source="k0IA8ltI0ftRQljYh4qC-1" target="k0IA8ltI0ftRQljYh4qC-6">
          <mxGeometry width="50" height="50" relative="1" as="geometry">
            <mxPoint x="510" y="390" as="sourcePoint" />
            <mxPoint x="560" y="340" as="targetPoint" />
          </mxGeometry>
        </mxCell>
        <mxCell id="k0IA8ltI0ftRQljYh4qC-43" value="" style="endArrow=classic;html=1;rounded=0;exitX=0.5;exitY=0;exitDx=0;exitDy=0;entryX=0.494;entryY=1.067;entryDx=0;entryDy=0;entryPerimeter=0;" edge="1" parent="1" source="k0IA8ltI0ftRQljYh4qC-29" target="k0IA8ltI0ftRQljYh4qC-42">
          <mxGeometry width="50" height="50" relative="1" as="geometry">
            <mxPoint x="510" y="330" as="sourcePoint" />
            <mxPoint x="350" y="300" as="targetPoint" />
          </mxGeometry>
        </mxCell>
        <mxCell id="k0IA8ltI0ftRQljYh4qC-47" value="pylib" style="swimlane;horizontal=0;whiteSpace=wrap;html=1;" vertex="1" parent="1">
          <mxGeometry x="20" y="20" width="680" height="280" as="geometry" />
        </mxCell>
        <mxCell id="k0IA8ltI0ftRQljYh4qC-39" value="ZMQRelay" style="swimlane;fontStyle=0;childLayout=stackLayout;horizontal=1;startSize=26;horizontalStack=0;resizeParent=1;resizeParentMax=0;resizeLast=0;collapsible=1;marginBottom=0;align=center;fontSize=14;" vertex="1" parent="k0IA8ltI0ftRQljYh4qC-47">
          <mxGeometry x="30" y="140" width="160" height="116" as="geometry" />
        </mxCell>
        <mxCell id="k0IA8ltI0ftRQljYh4qC-40" value="process_message()" style="text;strokeColor=none;fillColor=none;spacingLeft=4;spacingRight=4;overflow=hidden;rotatable=0;points=[[0,0.5],[1,0.5]];portConstraint=eastwest;fontSize=12;whiteSpace=wrap;html=1;" vertex="1" parent="k0IA8ltI0ftRQljYh4qC-39">
          <mxGeometry y="26" width="160" height="30" as="geometry" />
        </mxCell>
        <mxCell id="k0IA8ltI0ftRQljYh4qC-41" value="startup()" style="text;strokeColor=none;fillColor=none;spacingLeft=4;spacingRight=4;overflow=hidden;rotatable=0;points=[[0,0.5],[1,0.5]];portConstraint=eastwest;fontSize=12;whiteSpace=wrap;html=1;" vertex="1" parent="k0IA8ltI0ftRQljYh4qC-39">
          <mxGeometry y="56" width="160" height="30" as="geometry" />
        </mxCell>
        <mxCell id="k0IA8ltI0ftRQljYh4qC-42" value="run()" style="text;strokeColor=none;fillColor=none;spacingLeft=4;spacingRight=4;overflow=hidden;rotatable=0;points=[[0,0.5],[1,0.5]];portConstraint=eastwest;fontSize=12;whiteSpace=wrap;html=1;" vertex="1" parent="k0IA8ltI0ftRQljYh4qC-39">
          <mxGeometry y="86" width="160" height="30" as="geometry" />
        </mxCell>
        <mxCell id="k0IA8ltI0ftRQljYh4qC-5" value="MQConnection" style="swimlane;fontStyle=0;childLayout=stackLayout;horizontal=1;startSize=26;horizontalStack=0;resizeParent=1;resizeParentMax=0;resizeLast=0;collapsible=1;marginBottom=0;align=center;fontSize=14;" vertex="1" parent="k0IA8ltI0ftRQljYh4qC-47">
          <mxGeometry x="200" y="200" width="160" height="56" as="geometry">
            <mxRectangle x="165" y="200" width="130" height="30" as="alternateBounds" />
          </mxGeometry>
        </mxCell>
        <mxCell id="k0IA8ltI0ftRQljYh4qC-6" value="stop()" style="text;strokeColor=none;fillColor=none;spacingLeft=4;spacingRight=4;overflow=hidden;rotatable=0;points=[[0,0.5],[1,0.5]];portConstraint=eastwest;fontSize=12;whiteSpace=wrap;html=1;" vertex="1" parent="k0IA8ltI0ftRQljYh4qC-5">
          <mxGeometry y="26" width="160" height="30" as="geometry" />
        </mxCell>
        <mxCell id="k0IA8ltI0ftRQljYh4qC-26" value="AppThread" style="swimlane;fontStyle=0;childLayout=stackLayout;horizontal=1;startSize=26;horizontalStack=0;resizeParent=1;resizeParentMax=0;resizeLast=0;collapsible=1;marginBottom=0;align=center;fontSize=14;" vertex="1" parent="k0IA8ltI0ftRQljYh4qC-47">
          <mxGeometry x="450" y="40" width="160" height="56" as="geometry">
            <mxRectangle x="165" y="200" width="130" height="30" as="alternateBounds" />
          </mxGeometry>
        </mxCell>
        <mxCell id="k0IA8ltI0ftRQljYh4qC-27" value="untrack()" style="text;strokeColor=none;fillColor=none;spacingLeft=4;spacingRight=4;overflow=hidden;rotatable=0;points=[[0,0.5],[1,0.5]];portConstraint=eastwest;fontSize=12;whiteSpace=wrap;html=1;" vertex="1" parent="k0IA8ltI0ftRQljYh4qC-26">
          <mxGeometry y="26" width="160" height="30" as="geometry" />
        </mxCell>
        <mxCell id="k0IA8ltI0ftRQljYh4qC-59" value="" style="curved=1;endArrow=classic;html=1;rounded=0;entryX=0.531;entryY=1.167;entryDx=0;entryDy=0;entryPerimeter=0;exitX=0.5;exitY=0;exitDx=0;exitDy=0;" edge="1" parent="k0IA8ltI0ftRQljYh4qC-47" source="k0IA8ltI0ftRQljYh4qC-5" target="k0IA8ltI0ftRQljYh4qC-11">
          <mxGeometry width="50" height="50" relative="1" as="geometry">
            <mxPoint x="360" y="290" as="sourcePoint" />
            <mxPoint x="671" y="121" as="targetPoint" />
            <Array as="points" />
          </mxGeometry>
        </mxCell>
        <mxCell id="k0IA8ltI0ftRQljYh4qC-9" value="Closable" style="swimlane;fontStyle=0;childLayout=stackLayout;horizontal=1;startSize=26;horizontalStack=0;resizeParent=1;resizeParentMax=0;resizeLast=0;collapsible=1;marginBottom=0;align=center;fontSize=14;" vertex="1" parent="k0IA8ltI0ftRQljYh4qC-47">
          <mxGeometry x="250" y="10" width="160" height="86" as="geometry" />
        </mxCell>
        <mxCell id="k0IA8ltI0ftRQljYh4qC-10" value="get_socket()" style="text;strokeColor=none;fillColor=none;spacingLeft=4;spacingRight=4;overflow=hidden;rotatable=0;points=[[0,0.5],[1,0.5]];portConstraint=eastwest;fontSize=12;whiteSpace=wrap;html=1;" vertex="1" parent="k0IA8ltI0ftRQljYh4qC-9">
          <mxGeometry y="26" width="160" height="30" as="geometry" />
        </mxCell>
        <mxCell id="k0IA8ltI0ftRQljYh4qC-11" value="close()" style="text;strokeColor=none;fillColor=none;spacingLeft=4;spacingRight=4;overflow=hidden;rotatable=0;points=[[0,0.5],[1,0.5]];portConstraint=eastwest;fontSize=12;whiteSpace=wrap;html=1;" vertex="1" parent="k0IA8ltI0ftRQljYh4qC-9">
          <mxGeometry y="56" width="160" height="30" as="geometry" />
        </mxCell>
        <mxCell id="k0IA8ltI0ftRQljYh4qC-63" value="" style="endArrow=classic;html=1;rounded=0;entryX=0.438;entryY=1.2;entryDx=0;entryDy=0;entryPerimeter=0;exitX=0.5;exitY=0;exitDx=0;exitDy=0;" edge="1" parent="k0IA8ltI0ftRQljYh4qC-47" source="k0IA8ltI0ftRQljYh4qC-5" target="k0IA8ltI0ftRQljYh4qC-27">
          <mxGeometry width="50" height="50" relative="1" as="geometry">
            <mxPoint x="490" y="330" as="sourcePoint" />
            <mxPoint x="540" y="280" as="targetPoint" />
          </mxGeometry>
        </mxCell>
        <mxCell id="k0IA8ltI0ftRQljYh4qC-66" value="" style="endArrow=classic;html=1;rounded=0;entryX=0.269;entryY=1;entryDx=0;entryDy=0;entryPerimeter=0;exitX=0.5;exitY=0;exitDx=0;exitDy=0;" edge="1" parent="k0IA8ltI0ftRQljYh4qC-47" source="k0IA8ltI0ftRQljYh4qC-39" target="k0IA8ltI0ftRQljYh4qC-11">
          <mxGeometry width="50" height="50" relative="1" as="geometry">
            <mxPoint x="490" y="330" as="sourcePoint" />
            <mxPoint x="540" y="280" as="targetPoint" />
          </mxGeometry>
        </mxCell>
        <mxCell id="k0IA8ltI0ftRQljYh4qC-65" value="" style="endArrow=classic;html=1;rounded=0;entryX=0.138;entryY=1.167;entryDx=0;entryDy=0;entryPerimeter=0;exitX=0.5;exitY=0;exitDx=0;exitDy=0;" edge="1" parent="k0IA8ltI0ftRQljYh4qC-47" source="k0IA8ltI0ftRQljYh4qC-39" target="k0IA8ltI0ftRQljYh4qC-27">
          <mxGeometry width="50" height="50" relative="1" as="geometry">
            <mxPoint x="490" y="330" as="sourcePoint" />
            <mxPoint x="540" y="280" as="targetPoint" />
          </mxGeometry>
        </mxCell>
        <mxCell id="k0IA8ltI0ftRQljYh4qC-48" value="event-processor" style="swimlane;horizontal=0;whiteSpace=wrap;html=1;" vertex="1" parent="1">
          <mxGeometry x="20" y="300" width="680" height="126" as="geometry" />
        </mxCell>
        <mxCell id="k0IA8ltI0ftRQljYh4qC-1" value="EventProcessor" style="swimlane;fontStyle=0;childLayout=stackLayout;horizontal=1;startSize=26;horizontalStack=0;resizeParent=1;resizeParentMax=0;resizeLast=0;collapsible=1;marginBottom=0;align=center;fontSize=14;" vertex="1" parent="k0IA8ltI0ftRQljYh4qC-48">
          <mxGeometry x="200" y="10" width="160" height="56" as="geometry">
            <mxRectangle x="240" y="330" width="140" height="30" as="alternateBounds" />
          </mxGeometry>
        </mxCell>
        <mxCell id="k0IA8ltI0ftRQljYh4qC-2" value="run()" style="text;strokeColor=none;fillColor=none;spacingLeft=4;spacingRight=4;overflow=hidden;rotatable=0;points=[[0,0.5],[1,0.5]];portConstraint=eastwest;fontSize=12;whiteSpace=wrap;html=1;" vertex="1" parent="k0IA8ltI0ftRQljYh4qC-1">
          <mxGeometry y="26" width="160" height="30" as="geometry" />
        </mxCell>
        <mxCell id="k0IA8ltI0ftRQljYh4qC-29" value="HeartbeatFilter" style="swimlane;fontStyle=0;childLayout=stackLayout;horizontal=1;startSize=26;horizontalStack=0;resizeParent=1;resizeParentMax=0;resizeLast=0;collapsible=1;marginBottom=0;align=center;fontSize=14;" vertex="1" parent="k0IA8ltI0ftRQljYh4qC-48">
          <mxGeometry x="30" y="10" width="160" height="56" as="geometry" />
        </mxCell>
        <mxCell id="k0IA8ltI0ftRQljYh4qC-30" value="process_message()" style="text;strokeColor=none;fillColor=none;spacingLeft=4;spacingRight=4;overflow=hidden;rotatable=0;points=[[0,0.5],[1,0.5]];portConstraint=eastwest;fontSize=12;whiteSpace=wrap;html=1;" vertex="1" parent="k0IA8ltI0ftRQljYh4qC-29">
          <mxGeometry y="26" width="160" height="30" as="geometry" />
        </mxCell>
        <mxCell id="k0IA8ltI0ftRQljYh4qC-50" value="MqttSubscriber" style="swimlane;fontStyle=0;childLayout=stackLayout;horizontal=1;startSize=26;horizontalStack=0;resizeParent=1;resizeParentMax=0;resizeLast=0;collapsible=1;marginBottom=0;align=center;fontSize=14;" vertex="1" parent="k0IA8ltI0ftRQljYh4qC-48">
          <mxGeometry x="370" y="10" width="160" height="86" as="geometry" />
        </mxCell>
        <mxCell id="k0IA8ltI0ftRQljYh4qC-51" value="on_message()" style="text;strokeColor=none;fillColor=none;spacingLeft=4;spacingRight=4;overflow=hidden;rotatable=0;points=[[0,0.5],[1,0.5]];portConstraint=eastwest;fontSize=12;whiteSpace=wrap;html=1;" vertex="1" parent="k0IA8ltI0ftRQljYh4qC-50">
          <mxGeometry y="26" width="160" height="30" as="geometry" />
        </mxCell>
        <mxCell id="k0IA8ltI0ftRQljYh4qC-52" value="run()" style="text;strokeColor=none;fillColor=none;spacingLeft=4;spacingRight=4;overflow=hidden;rotatable=0;points=[[0,0.5],[1,0.5]];portConstraint=eastwest;fontSize=12;whiteSpace=wrap;html=1;" vertex="1" parent="k0IA8ltI0ftRQljYh4qC-50">
          <mxGeometry y="56" width="160" height="30" as="geometry" />
        </mxCell>
        <mxCell id="k0IA8ltI0ftRQljYh4qC-55" value="TBot" style="swimlane;fontStyle=0;childLayout=stackLayout;horizontal=1;startSize=26;horizontalStack=0;resizeParent=1;resizeParentMax=0;resizeLast=0;collapsible=1;marginBottom=0;align=center;fontSize=14;" vertex="1" parent="k0IA8ltI0ftRQljYh4qC-48">
          <mxGeometry x="540" y="10" width="130" height="56" as="geometry" />
        </mxCell>
        <mxCell id="k0IA8ltI0ftRQljYh4qC-56" value="run()" style="text;strokeColor=none;fillColor=none;spacingLeft=4;spacingRight=4;overflow=hidden;rotatable=0;points=[[0,0.5],[1,0.5]];portConstraint=eastwest;fontSize=12;whiteSpace=wrap;html=1;" vertex="1" parent="k0IA8ltI0ftRQljYh4qC-55">
          <mxGeometry y="26" width="130" height="30" as="geometry" />
        </mxCell>
        <mxCell id="k0IA8ltI0ftRQljYh4qC-60" value="" style="endArrow=classic;html=1;rounded=0;entryX=0.675;entryY=1.1;entryDx=0;entryDy=0;entryPerimeter=0;exitX=0.5;exitY=0;exitDx=0;exitDy=0;" edge="1" parent="1" source="k0IA8ltI0ftRQljYh4qC-50" target="k0IA8ltI0ftRQljYh4qC-11">
          <mxGeometry width="50" height="50" relative="1" as="geometry">
            <mxPoint x="510" y="390" as="sourcePoint" />
            <mxPoint x="560" y="340" as="targetPoint" />
          </mxGeometry>
        </mxCell>
        <mxCell id="k0IA8ltI0ftRQljYh4qC-61" value="" style="endArrow=classic;html=1;rounded=0;entryX=0.575;entryY=1.1;entryDx=0;entryDy=0;entryPerimeter=0;exitX=0.5;exitY=0;exitDx=0;exitDy=0;" edge="1" parent="1" source="k0IA8ltI0ftRQljYh4qC-50" target="k0IA8ltI0ftRQljYh4qC-27">
          <mxGeometry width="50" height="50" relative="1" as="geometry">
            <mxPoint x="510" y="390" as="sourcePoint" />
            <mxPoint x="560" y="340" as="targetPoint" />
          </mxGeometry>
        </mxCell>
        <mxCell id="k0IA8ltI0ftRQljYh4qC-62" value="" style="endArrow=classic;html=1;rounded=0;entryX=0.763;entryY=1.1;entryDx=0;entryDy=0;entryPerimeter=0;exitX=0.5;exitY=0;exitDx=0;exitDy=0;" edge="1" parent="1" source="k0IA8ltI0ftRQljYh4qC-55" target="k0IA8ltI0ftRQljYh4qC-27">
          <mxGeometry width="50" height="50" relative="1" as="geometry">
            <mxPoint x="510" y="390" as="sourcePoint" />
            <mxPoint x="560" y="340" as="targetPoint" />
          </mxGeometry>
        </mxCell>
        <mxCell id="k0IA8ltI0ftRQljYh4qC-68" value="event-processor" style="swimlane;whiteSpace=wrap;html=1;" vertex="1" parent="1">
          <mxGeometry x="20" y="520" width="480" height="700" as="geometry" />
        </mxCell>
        <mxCell id="k0IA8ltI0ftRQljYh4qC-79" value="EventProcessor" style="swimlane;whiteSpace=wrap;html=1;" vertex="1" collapsed="1" parent="k0IA8ltI0ftRQljYh4qC-68">
          <mxGeometry x="10" y="30" width="180" height="450" as="geometry">
            <mxRectangle x="90" y="50" width="200" height="200" as="alternateBounds" />
          </mxGeometry>
        </mxCell>
        <mxCell id="k0IA8ltI0ftRQljYh4qC-80" value="ZMQ PULL socket" style="swimlane;childLayout=stackLayout;horizontal=1;startSize=50;horizontalStack=0;rounded=1;fontSize=14;fontStyle=0;strokeWidth=2;resizeParent=0;resizeLast=1;shadow=0;dashed=0;align=center;arcSize=4;whiteSpace=wrap;html=1;" vertex="1" parent="k0IA8ltI0ftRQljYh4qC-68">
          <mxGeometry x="19" y="62" width="160" height="80" as="geometry" />
        </mxCell>
        <mxCell id="k0IA8ltI0ftRQljYh4qC-81" value="&lt;font face=&quot;Courier New&quot;&gt;inproc://app-worker&lt;/font&gt;" style="align=center;strokeColor=none;fillColor=none;spacingLeft=4;fontSize=12;verticalAlign=top;resizable=0;rotatable=0;part=1;html=1;" vertex="1" parent="k0IA8ltI0ftRQljYh4qC-80">
          <mxGeometry y="50" width="160" height="30" as="geometry" />
        </mxCell>
        <mxCell id="k0IA8ltI0ftRQljYh4qC-82" value="HeartbeatFilter(ZMQRelay)" style="swimlane;whiteSpace=wrap;html=1;" vertex="1" collapsed="1" parent="k0IA8ltI0ftRQljYh4qC-68">
          <mxGeometry x="240" y="30" width="200" height="290" as="geometry">
            <mxRectangle x="90" y="50" width="200" height="200" as="alternateBounds" />
          </mxGeometry>
        </mxCell>
        <mxCell id="k0IA8ltI0ftRQljYh4qC-83" value="ZMQ PULL socket" style="swimlane;childLayout=stackLayout;horizontal=1;startSize=50;horizontalStack=0;rounded=1;fontSize=14;fontStyle=0;strokeWidth=2;resizeParent=0;resizeLast=1;shadow=0;dashed=0;align=center;arcSize=4;whiteSpace=wrap;html=1;" vertex="1" parent="k0IA8ltI0ftRQljYh4qC-68">
          <mxGeometry x="249.5" y="62" width="181" height="80" as="geometry" />
        </mxCell>
        <mxCell id="k0IA8ltI0ftRQljYh4qC-84" value="&lt;font face=&quot;Courier New&quot;&gt;inproc://heartbeat-nanny&lt;/font&gt;" style="align=center;strokeColor=none;fillColor=none;spacingLeft=4;fontSize=12;verticalAlign=top;resizable=0;rotatable=0;part=1;html=1;" vertex="1" parent="k0IA8ltI0ftRQljYh4qC-83">
          <mxGeometry y="50" width="181" height="30" as="geometry" />
        </mxCell>
        <mxCell id="k0IA8ltI0ftRQljYh4qC-85" value="MqttSubscriber" style="swimlane;whiteSpace=wrap;html=1;" vertex="1" collapsed="1" parent="k0IA8ltI0ftRQljYh4qC-68">
          <mxGeometry x="240" y="330" width="200" height="360" as="geometry">
            <mxRectangle x="90" y="50" width="200" height="200" as="alternateBounds" />
          </mxGeometry>
        </mxCell>
        <mxCell id="k0IA8ltI0ftRQljYh4qC-86" value="ZMQ PULL socket" style="swimlane;childLayout=stackLayout;horizontal=1;startSize=50;horizontalStack=0;rounded=1;fontSize=14;fontStyle=0;strokeWidth=2;resizeParent=0;resizeLast=1;shadow=0;dashed=0;align=center;arcSize=4;whiteSpace=wrap;html=1;" vertex="1" parent="k0IA8ltI0ftRQljYh4qC-68">
          <mxGeometry x="248" y="361" width="184" height="80" as="geometry" />
        </mxCell>
        <mxCell id="k0IA8ltI0ftRQljYh4qC-87" value="&lt;font face=&quot;Courier New&quot;&gt;inproc://mqtt-publish&lt;/font&gt;" style="align=center;strokeColor=none;fillColor=none;spacingLeft=4;fontSize=12;verticalAlign=top;resizable=0;rotatable=0;part=1;html=1;" vertex="1" parent="k0IA8ltI0ftRQljYh4qC-86">
          <mxGeometry y="50" width="184" height="30" as="geometry" />
        </mxCell>
        <mxCell id="k0IA8ltI0ftRQljYh4qC-100" value="Receive MQTT" style="shape=step;perimeter=stepPerimeter;whiteSpace=wrap;html=1;fixedSize=1;" vertex="1" parent="k0IA8ltI0ftRQljYh4qC-68">
          <mxGeometry x="275" y="534" width="156" height="39" as="geometry" />
        </mxCell>
        <mxCell id="k0IA8ltI0ftRQljYh4qC-90" value="ZMQ PUSH socket" style="swimlane;childLayout=stackLayout;horizontal=1;startSize=50;horizontalStack=0;rounded=1;fontSize=14;fontStyle=0;strokeWidth=2;resizeParent=0;resizeLast=1;shadow=0;dashed=0;align=center;arcSize=4;whiteSpace=wrap;html=1;" vertex="1" parent="1">
          <mxGeometry x="269.5" y="756" width="181" height="80" as="geometry" />
        </mxCell>
        <mxCell id="k0IA8ltI0ftRQljYh4qC-91" value="&lt;font face=&quot;Courier New&quot;&gt;inproc://app-worker&lt;/font&gt;" style="align=center;strokeColor=none;fillColor=none;spacingLeft=4;fontSize=12;verticalAlign=top;resizable=0;rotatable=0;part=1;html=1;" vertex="1" parent="k0IA8ltI0ftRQljYh4qC-90">
          <mxGeometry y="50" width="181" height="30" as="geometry" />
        </mxCell>
        <mxCell id="k0IA8ltI0ftRQljYh4qC-93" value="ZMQ PUSH socket" style="swimlane;childLayout=stackLayout;horizontal=1;startSize=50;horizontalStack=0;rounded=1;fontSize=14;fontStyle=0;strokeWidth=2;resizeParent=0;resizeLast=1;shadow=0;dashed=0;align=center;arcSize=4;whiteSpace=wrap;html=1;" vertex="1" parent="1">
          <mxGeometry x="267" y="1116" width="187" height="80" as="geometry" />
        </mxCell>
        <mxCell id="k0IA8ltI0ftRQljYh4qC-94" value="&lt;font face=&quot;Courier New&quot;&gt;inproc://heartbeat-nanny&lt;/font&gt;" style="align=center;strokeColor=none;fillColor=none;spacingLeft=4;fontSize=12;verticalAlign=top;resizable=0;rotatable=0;part=1;html=1;" vertex="1" parent="k0IA8ltI0ftRQljYh4qC-93">
          <mxGeometry y="50" width="187" height="30" as="geometry" />
        </mxCell>
        <mxCell id="k0IA8ltI0ftRQljYh4qC-95" value="Send MQTT message&lt;br&gt;via&lt;br&gt;ZMQ PUSH socket to&lt;br&gt;inproc://mqtt-publish" style="shape=step;perimeter=stepPerimeter;whiteSpace=wrap;html=1;fixedSize=1;" vertex="1" parent="1">
          <mxGeometry x="36" y="885" width="168" height="76" as="geometry" />
        </mxCell>
        <mxCell id="k0IA8ltI0ftRQljYh4qC-96" value="" style="endArrow=none;dashed=1;html=1;dashPattern=1 3;strokeWidth=2;rounded=0;" edge="1" parent="1">
          <mxGeometry width="50" height="50" relative="1" as="geometry">
            <mxPoint x="120" y="840" as="sourcePoint" />
            <mxPoint x="120" y="790" as="targetPoint" />
            <Array as="points">
              <mxPoint x="120" y="840" />
            </Array>
          </mxGeometry>
        </mxCell>
        <mxCell id="k0IA8ltI0ftRQljYh4qC-97" value="" style="endArrow=classic;html=1;rounded=0;exitX=1;exitY=0.5;exitDx=0;exitDy=0;entryX=0;entryY=0.5;entryDx=0;entryDy=0;strokeWidth=2;" edge="1" parent="1" source="k0IA8ltI0ftRQljYh4qC-95" target="k0IA8ltI0ftRQljYh4qC-86">
          <mxGeometry width="50" height="50" relative="1" as="geometry">
            <mxPoint x="570" y="700" as="sourcePoint" />
            <mxPoint x="620" y="650" as="targetPoint" />
          </mxGeometry>
        </mxCell>
        <mxCell id="k0IA8ltI0ftRQljYh4qC-101" value="" style="endArrow=classic;html=1;rounded=0;exitX=0.5;exitY=1;exitDx=0;exitDy=0;entryX=0.5;entryY=0;entryDx=0;entryDy=0;" edge="1" parent="1" source="k0IA8ltI0ftRQljYh4qC-100" target="k0IA8ltI0ftRQljYh4qC-93">
          <mxGeometry width="50" height="50" relative="1" as="geometry">
            <mxPoint x="570" y="890" as="sourcePoint" />
            <mxPoint x="620" y="840" as="targetPoint" />
          </mxGeometry>
        </mxCell>
        <mxCell id="k0IA8ltI0ftRQljYh4qC-102" value="" style="endArrow=classic;html=1;rounded=0;exitX=1;exitY=0.25;exitDx=0;exitDy=0;entryX=0.997;entryY=0.338;entryDx=0;entryDy=0;entryPerimeter=0;strokeWidth=2;" edge="1" parent="1" source="k0IA8ltI0ftRQljYh4qC-93" target="k0IA8ltI0ftRQljYh4qC-83">
          <mxGeometry width="50" height="50" relative="1" as="geometry">
            <mxPoint x="570" y="820" as="sourcePoint" />
            <mxPoint x="620" y="770" as="targetPoint" />
            <Array as="points">
              <mxPoint x="490" y="1136" />
              <mxPoint x="490" y="609" />
            </Array>
          </mxGeometry>
        </mxCell>
        <mxCell id="k0IA8ltI0ftRQljYh4qC-103" value="Send MQTT" style="shape=step;perimeter=stepPerimeter;whiteSpace=wrap;html=1;fixedSize=1;" vertex="1" parent="1">
          <mxGeometry x="295" y="984" width="156" height="39" as="geometry" />
        </mxCell>
        <mxCell id="k0IA8ltI0ftRQljYh4qC-104" value="" style="endArrow=classic;html=1;rounded=0;exitX=0.5;exitY=1;exitDx=0;exitDy=0;entryX=0.5;entryY=0;entryDx=0;entryDy=0;" edge="1" parent="1" source="k0IA8ltI0ftRQljYh4qC-87" target="k0IA8ltI0ftRQljYh4qC-103">
          <mxGeometry width="50" height="50" relative="1" as="geometry">
            <mxPoint x="570" y="890" as="sourcePoint" />
            <mxPoint x="620" y="840" as="targetPoint" />
          </mxGeometry>
        </mxCell>
        <mxCell id="k0IA8ltI0ftRQljYh4qC-106" value="paho-mqtt" style="swimlane;horizontal=0;whiteSpace=wrap;html=1;" vertex="1" parent="1">
          <mxGeometry x="265" y="970" width="191" height="140" as="geometry" />
        </mxCell>
        <mxCell id="k0IA8ltI0ftRQljYh4qC-116" value="Update device heartbeat" style="shape=step;perimeter=stepPerimeter;whiteSpace=wrap;html=1;fixedSize=1;size=15;" vertex="1" parent="1">
          <mxGeometry x="272" y="689" width="178" height="34" as="geometry" />
        </mxCell>
        <mxCell id="k0IA8ltI0ftRQljYh4qC-117" value="" style="endArrow=classic;html=1;rounded=0;exitX=0.5;exitY=1;exitDx=0;exitDy=0;entryX=0.5;entryY=0;entryDx=0;entryDy=0;" edge="1" parent="1" source="k0IA8ltI0ftRQljYh4qC-84" target="k0IA8ltI0ftRQljYh4qC-116">
          <mxGeometry width="50" height="50" relative="1" as="geometry">
            <mxPoint x="570" y="940" as="sourcePoint" />
            <mxPoint x="620" y="890" as="targetPoint" />
          </mxGeometry>
        </mxCell>
        <mxCell id="k0IA8ltI0ftRQljYh4qC-118" value="" style="endArrow=classic;html=1;rounded=0;exitX=0.5;exitY=1;exitDx=0;exitDy=0;entryX=0.5;entryY=0;entryDx=0;entryDy=0;" edge="1" parent="1" source="k0IA8ltI0ftRQljYh4qC-116" target="k0IA8ltI0ftRQljYh4qC-90">
          <mxGeometry width="50" height="50" relative="1" as="geometry">
            <mxPoint x="570" y="940" as="sourcePoint" />
            <mxPoint x="620" y="890" as="targetPoint" />
          </mxGeometry>
        </mxCell>
        <mxCell id="k0IA8ltI0ftRQljYh4qC-119" value="" style="endArrow=classic;html=1;rounded=0;exitX=0;exitY=0.5;exitDx=0;exitDy=0;entryX=1;entryY=0.25;entryDx=0;entryDy=0;strokeWidth=2;" edge="1" parent="1" source="k0IA8ltI0ftRQljYh4qC-90" target="k0IA8ltI0ftRQljYh4qC-80">
          <mxGeometry width="50" height="50" relative="1" as="geometry">
            <mxPoint x="570" y="940" as="sourcePoint" />
            <mxPoint x="620" y="890" as="targetPoint" />
            <Array as="points">
              <mxPoint x="240" y="796" />
              <mxPoint x="230" y="602" />
            </Array>
          </mxGeometry>
        </mxCell>
        <mxCell id="k0IA8ltI0ftRQljYh4qC-120" value="Process MQTT message&lt;br&gt;and&lt;br&gt;make trigger decision" style="shape=step;perimeter=stepPerimeter;whiteSpace=wrap;html=1;fixedSize=1;" vertex="1" parent="1">
          <mxGeometry x="36" y="675" width="168" height="76" as="geometry" />
        </mxCell>
      </root>
    </mxGraphModel>
  </diagram>
</mxfile>
